HIERARCHY
ROOT Hips
{
	OFFSET 0.00 0.00 0.00
	CHANNELS 6 Xposition Yposition Zposition Xrotation Yrotation Zrotation
	JOINT LeftUpLeg
	{
		OFFSET 3.25772 0.00000 0.00000
		CHANNELS 3 Xrotation Yrotation Zrotation
		JOINT LeftLeg
		{
			OFFSET 0.00000 -15.35355 0.00000
			CHANNELS 3 Xrotation Yrotation Zrotation
			JOINT LeftFoot
			{
				OFFSET 0.00000 -16.48949 0.00000
				CHANNELS 3 Xrotation Yrotation Zrotation
				JOINT LeftToeBase
				{
					OFFSET 0.00000 -1.72224 6.42750
					CHANNELS 3 Xrotation Yrotation Zrotation
					End Site
					{
						OFFSET 0.00000 0.00000 2.95275
					}
				}
			}
		}
	}
	JOINT RightUpLeg
	{
		OFFSET -3.25772 0.00000 0.00000
		CHANNELS 3 Xrotation Yrotation Zrotation
		JOINT RightLeg
		{
			OFFSET 0.00000 -15.35355 0.00000
			CHANNELS 3 Xrotation Yrotation Zrotation
			JOINT RightFoot
			{
				OFFSET 0.00000 -16.48949 0.00000
				CHANNELS 3 Xrotation Yrotation Zrotation
				JOINT RightToeBase
				{
					OFFSET 0.00000 -1.72224 6.42750
					CHANNELS 3 Xrotation Yrotation Zrotation
					End Site
					{
						OFFSET 0.00000 0.00000 2.95275
					}
				}
			}
		}
	}
	JOINT Spine
	{
		OFFSET 0.00000 0.03937 0.00000
		CHANNELS 3 Xrotation Yrotation Zrotation
		JOINT Spine1
		{
			OFFSET 0.00000 10.14986 0.00000
			CHANNELS 3 Xrotation Yrotation Zrotation
			JOINT Neck
			{
				OFFSET 0.00000 9.84250 0.00000
				CHANNELS 3 Xrotation Yrotation Zrotation
				JOINT Head
				{
					OFFSET 0.00000 4.54023 0.00000
					CHANNELS 3 Xrotation Yrotation Zrotation
					End Site
					{
						OFFSET 0.00000 4.52755 0.00000
					}
				}
			}
			JOINT LeftShoulder
			{
				OFFSET 0.00000 9.84250 0.00000
				CHANNELS 3 Xrotation Yrotation Zrotation
				JOINT LeftArm
				{
					OFFSET 7.21510 -0.00003 0.00000
					CHANNELS 3 Xrotation Yrotation Zrotation
					JOINT LeftForeArm
					{
						OFFSET 10.66411 -0.00004 0.00000
						CHANNELS 3 Xrotation Yrotation Zrotation
						JOINT LeftHand
						{
							OFFSET 8.93656 -0.00003 0.00000
							CHANNELS 3 Xrotation Yrotation Zrotation
							JOINT L_Wrist_End
							{
								OFFSET 3.93700 -0.00001 0.00000
								CHANNELS 3 Xrotation Yrotation Zrotation
							}
						}
					}
				}
			}
			JOINT RightShoulder
			{
				OFFSET 0.00000 9.84250 0.00000
				CHANNELS 3 Xrotation Yrotation Zrotation
				JOINT RightArm
				{
					OFFSET -7.21510 -0.00003 0.00000
					CHANNELS 3 Xrotation Yrotation Zrotation
					JOINT RightForeArm
					{
						OFFSET -10.66411 -0.00004 0.00000
						CHANNELS 3 Xrotation Yrotation Zrotation
						JOINT RightHand
						{
							OFFSET -8.93656 -0.00003 0.00000
							CHANNELS 3 Xrotation Yrotation Zrotation
							JOINT R_Wrist_End
							{
								OFFSET -5.41338 -0.00002 0.00000
								CHANNELS 3 Xrotation Yrotation Zrotation
							}
						}
					}
				}
			}
		}
	}
}
MOTION
Frames: 15
Frame Time: 0.008333
 2.5017 32.3763 41.2372 6.3487 -2.0077 -5.2737 4.3601 12.8883 12.7926 46.4610 -0.0000 0.0000 14.2833 -16.6791 3.7251 -51.2377 0.0000 0.0000 -30.0070 0.5135 6.8082 28.0679 -0.0000 0.0000 -0.7438 -6.3523 0.8990 -34.5114 0.0000 0.0000 -17.4969 -11.8025 -8.8647 30.1166 2.4621 14.2697 -26.3234 34.2213 24.4312 -23.5404 -39.6107 -35.9230 15.3887 4.9544 12.8781 -6.9470 -40.0973 -71.1693 -0.0002 -38.7310 -0.0001 0.0282 2.4794 21.6925 -0.0000 -0.0000 0.0000 15.9225 -4.8349 0.3265 -2.2070 25.7547 57.5954 -0.0001 26.2987 0.0000 -21.9325 -11.0790 -20.2224 -0.0000 0.0000 -0.0000
 2.4815 32.3894 41.6906 6.2657 -2.4610 -5.2383 2.4872 12.7729 13.2661 50.3510 -0.0000 0.0000 15.2984 -15.9999 3.6372 -46.9880 0.0000 0.0000 -29.4798 0.7512 7.0472 28.5701 -0.0000 0.0000 -1.3766 -6.3298 0.6717 -34.3199 0.0000 -0.0000 -17.4508 -11.5858 -8.8793 30.0121 2.7932 14.3135 -26.1944 33.9658 24.6845 -23.8224 -39.3112 -36.4371 15.8403 5.2763 12.7962 -6.8220 -40.9704 -71.3717 -0.0002 -38.1175 -0.0001 0.0653 2.6680 21.1655 -0.0000 -0.0000 0.0000 16.4314 -4.6456 0.6290 -3.0914 26.6029 57.3138 -0.0001 26.4832 0.0000 -21.8115 -11.0462 -19.9832 -0.0000 0.0000 -0.0000
 2.4713 32.3955 42.1203 6.1224 -3.0247 -5.1373 0.6189 13.1380 13.7534 53.8712 -0.0000 0.0000 16.5696 -15.4167 2.8407 -42.3870 0.0000 0.0000 -29.0019 1.0178 7.2471 29.1961 -0.0000 0.0000 -1.9596 -6.3136 0.3993 -33.8534 0.0000 -0.0000 -17.2415 -11.2682 -8.7655 29.8067 3.1645 14.2628 -25.7118 33.8317 24.1982 -24.1308 -39.1636 -36.4883 16.1197 5.4113 12.6028 -6.1534 -41.9401 -71.0822 -0.0002 -37.5442 -0.0001 0.1640 2.5896 20.5680 -0.0000 0.0000 -0.0000 15.9931 -4.3904 0.5789 -3.0878 27.4491 57.3866 -0.0001 26.7130 0.0000 -22.4490 -10.9550 -20.3741 -0.0000 0.0000 -0.0000
 2.4660 32.4173 42.5609 6.0865 -3.6772 -5.0271 -1.3363 13.7991 14.3007 57.0903 -0.0000 0.0000 17.2076 -14.6666 1.9730 -37.2006 0.0000 -0.0000 -28.3129 1.1891 7.3658 29.3277 -0.0000 0.0000 -2.6249 -5.8465 0.1547 -33.4244 0.0000 -0.0000 -17.1268 -10.8833 -8.6074 29.4834 3.5273 14.1530 -25.4326 33.5814 24.1148 -24.2194 -39.0002 -36.7554 17.0804 5.8851 12.0699 -6.2357 -42.7269 -70.6875 -0.0002 -37.0346 -0.0001 0.4123 2.4873 19.7768 -0.0000 0.0000 -0.0000 15.9268 -3.8259 0.5032 -3.2626 27.9449 57.5371 -0.0001 27.0210 0.0000 -21.7386 -10.7134 -20.1803 -0.0000 0.0000 -0.0000
 2.4308 32.4458 42.9931 6.0614 -4.1104 -4.9477 -3.4221 14.3334 14.9637 60.2515 -0.0000 0.0000 16.7299 -13.5498 1.6775 -36.2816 0.0000 0.0000 -27.5574 1.4966 7.5334 29.3155 -0.0000 0.0000 -3.3364 -5.7396 -0.0989 -33.3748 0.0000 0.0000 -16.9853 -10.5659 -8.5913 29.1701 3.8405 14.0404 -25.2338 33.3952 24.0635 -24.4549 -38.8943 -36.9314 17.1198 6.1798 12.0823 -5.6912 -43.5782 -70.8360 -0.0002 -36.4501 -0.0001 0.5278 2.3169 19.5722 -0.0000 -0.0000 0.0000 15.4996 -3.4610 0.7696 -2.9971 28.7676 57.3284 -0.0001 27.5237 0.0000 -22.7962 -10.7768 -20.9571 -0.0000 -0.0000 0.0000
 2.4228 32.4876 43.4101 6.0063 -4.8779 -4.8425 -5.3758 15.0877 15.5198 62.9694 -0.0000 0.0000 15.4235 -12.4193 1.7354 -36.1261 0.0000 0.0000 -26.8675 2.2425 7.7708 29.2760 -0.0000 0.0000 -3.8793 -5.7096 -0.2665 -33.2826 0.0000 -0.0000 -16.7814 -10.0755 -8.3673 28.7520 4.1722 13.7250 -24.8714 33.2671 24.1764 -24.9823 -38.7381 -37.3433 17.3198 6.2043 12.0237 -5.1048 -43.7659 -70.9599 -0.0002 -36.0989 -0.0001 0.6345 2.4785 19.7049 -0.0000 0.0000 -0.0000 15.5485 -3.0919 0.9947 -3.1678 29.9785 57.0950 -0.0001 27.7865 0.0000 -22.8614 -10.7944 -21.0843 -0.0000 0.0000 -0.0000
 2.4065 32.5472 43.8473 5.9215 -5.5740 -4.7135 -7.1887 15.8702 16.0568 65.1931 -0.0000 0.0000 13.5877 -11.4389 1.6566 -36.3259 0.0000 -0.0000 -25.9851 2.7676 7.8948 29.0832 -0.0000 0.0000 -4.3323 -5.5201 -0.5142 -33.3567 0.0000 -0.0000 -16.6752 -9.5838 -8.2564 28.5353 4.5806 13.4988 -24.6331 32.8683 23.8859 -24.8500 -38.5482 -37.1811 17.3994 6.3887 11.8397 -4.6188 -44.2500 -71.0429 -0.0001 -35.4523 -0.0000 0.3147 2.0382 19.9602 -0.0000 0.0000 -0.0000 15.4334 -2.8094 0.9843 -3.6651 30.8358 57.4135 -0.0001 28.0013 0.0000 -19.8605 -11.6078 -19.7323 -0.0000 0.0000 -0.0000
 2.3804 32.6201 44.2500 5.8497 -6.3369 -4.5731 -9.1822 16.7080 16.6941 67.2067 -0.0000 0.0000 11.8329 -10.8183 2.0341 -36.6152 0.0000 -0.0000 -25.1180 3.7611 8.1264 28.6523 -0.0000 0.0000 -4.6527 -5.6729 -0.6134 -33.4750 0.0000 0.0000 -16.4521 -9.0652 -8.1464 28.2133 4.9792 13.1955 -24.4622 32.3574 23.7192 -24.7241 -38.3390 -37.0984 17.6573 6.7844 11.5492 -4.3615 -44.4838 -70.9995 -0.0001 -35.0120 -0.0000 0.0437 1.8994 19.5089 -0.0000 0.0000 -0.0000 15.0616 -2.6327 1.1366 -3.6567 32.3661 57.3651 -0.0001 28.0993 0.0000 -18.9342 -11.9545 -19.5342 -0.0000 -0.0000 0.0000
 2.3600 32.7151 44.7025 5.5574 -6.8756 -4.4407 -10.7489 17.3935 17.2465 68.7032 -0.0000 0.0000 10.3282 -10.3135 2.6511 -36.8252 0.0000 -0.0000 -23.7107 4.5332 8.1570 27.8931 -0.0000 0.0000 -4.9397 -5.6887 -0.7328 -33.5447 0.0000 -0.0000 -16.4024 -8.5135 -8.0004 28.4007 5.2372 12.6772 -24.3380 31.3080 23.5678 -24.2569 -37.8515 -36.6898 17.7812 7.0462 11.5359 -4.2464 -44.6304 -71.2622 -0.0001 -34.3332 -0.0000 0.0921 1.6033 19.4252 -0.0000 0.0000 -0.0000 14.7932 -2.2576 1.1607 -3.8636 33.7292 57.5978 -0.0001 28.2860 0.0000 -19.7717 -11.5089 -20.3464 -0.0000 -0.0000 0.0000
 2.3555 32.8109 45.0963 5.4638 -7.2711 -4.3135 -12.7566 17.8279 17.7450 70.1465 -0.0000 0.0000 8.9563 -9.7503 3.3094 -36.7670 0.0000 -0.0000 -22.5663 5.1747 8.1147 27.0997 -0.0000 0.0000 -5.0617 -5.7471 -0.8626 -33.7358 0.0000 0.0000 -16.0857 -8.2090 -7.9632 27.9775 5.4424 12.4287 -24.2187 30.8671 23.5397 -23.9479 -37.6697 -36.6927 17.9374 7.2885 11.3548 -4.1046 -44.3662 -71.6463 -0.0001 -33.9190 -0.0000 0.0443 1.8983 19.1580 -0.0000 -0.0000 0.0000 14.4422 -1.7416 1.0599 -4.3242 34.2621 58.1122 -0.0001 28.7294 0.0000 -19.7449 -11.3591 -20.4507 -0.0000 -0.0000 0.0000
 2.3634 32.9247 45.5204 5.2695 -7.5814 -4.1203 -14.4705 18.1713 18.0513 71.0984 -0.0000 0.0000 7.8301 -9.3575 4.1274 -36.3485 0.0000 -0.0000 -21.0767 5.8671 7.9156 25.9769 -0.0000 0.0000 -5.1311 -5.8494 -0.9222 -33.8294 0.0000 -0.0000 -15.8984 -7.7977 -7.8676 27.9763 5.6241 12.0119 -23.9103 30.4545 23.3572 -24.1512 -37.3219 -36.7340 18.0343 7.5226 11.0758 -3.9865 -44.0303 -71.8207 -0.0001 -33.5007 -0.0000 -0.2964 1.7474 18.9746 -0.0000 0.0000 -0.0000 14.1857 -1.4673 1.0167 -4.7286 35.6634 58.4317 -0.0001 28.8539 0.0000 -19.4079 -11.3111 -20.7683 -0.0000 0.0000 -0.0000
 2.3554 33.0485 46.0080 4.8486 -7.9626 -3.8614 -15.6692 18.7623 18.2592 71.4511 -0.0000 0.0000 7.2913 -8.8623 4.3353 -36.9704 0.0000 -0.0000 -19.2275 7.1321 7.7393 24.6957 -0.0000 0.0000 -5.2000 -6.3995 -0.9712 -34.0077 0.0000 -0.0000 -15.7987 -7.2124 -7.8147 28.1721 5.8735 11.4436 -23.7473 29.1138 23.3208 -23.7678 -36.5693 -36.7868 18.2572 7.6311 10.9792 -3.9493 -43.7588 -72.0655 -0.0001 -33.0779 -0.0000 -0.4940 1.9993 18.8653 -0.0000 0.0000 -0.0000 14.0132 -1.4468 1.0896 -5.2761 36.9697 58.7777 -0.0001 29.2296 0.0000 -18.8015 -11.9752 -20.1619 -0.0000 0.0000 -0.0000
 2.3746 33.1727 46.4551 4.6589 -8.1383 -3.5080 -17.1341 19.0857 18.1924 71.7047 -0.0000 0.0000 6.7382 -8.4812 4.3822 -37.3896 0.0000 0.0000 -17.5320 8.5633 7.3905 23.1609 -0.0000 0.0000 -5.1314 -7.2073 -0.8518 -34.1429 0.0000 -0.0000 -15.7139 -6.8101 -7.8233 28.1940 5.9391 10.9039 -23.5248 27.9320 22.8876 -22.8016 -36.0649 -35.9162 18.2831 7.8700 10.7438 -3.9715 -43.2950 -72.4069 -0.0001 -32.3255 -0.0000 -0.4935 1.6068 18.5888 -0.0000 -0.0000 0.0000 13.6870 -1.0403 0.9391 -5.7135 38.0403 59.3253 -0.0001 29.4384 0.0000 -19.7225 -11.1917 -20.7632 -0.0000 0.0000 -0.0000
 2.3934 33.2860 46.8639 4.6167 -8.1497 -3.2295 -18.8353 19.1420 18.1907 71.8346 -0.0000 0.0000 6.1360 -8.2641 4.4967 -37.3154 0.0000 0.0000 -16.1322 9.0483 6.9496 22.0059 -0.0000 0.0000 -4.9871 -7.4137 -0.8708 -34.4020 0.0000 -0.0000 -15.5796 -6.5091 -7.8435 28.0191 6.0467 10.5664 -23.2097 27.5588 22.9345 -23.3402 -35.8628 -36.7117 18.5838 8.0586 10.4904 -3.9240 -43.1499 -72.4437 -0.0001 -32.0882 -0.0000 -1.1520 1.6435 18.7426 -0.0000 0.0000 -0.0000 13.5263 -0.8032 0.6460 -6.5265 38.9905 60.0413 -0.0001 29.9014 0.0000 -19.3281 -11.1995 -20.3261 -0.0000 -0.0000 0.0000
 2.4171 33.3954 47.2860 4.4977 -8.2353 -2.8546 -20.2669 19.3538 17.9466 71.6242 -0.0000 0.0000 5.4710 -7.8492 4.3709 -37.1381 0.0000 0.0000 -14.6504 9.8612 6.4578 20.8510 -0.0000 0.0000 -4.8807 -7.8352 -1.0845 -34.6191 0.0000 -0.0000 -15.3301 -6.0919 -7.8814 27.7071 6.2665 10.1786 -22.8677 26.6887 22.4076 -22.8066 -35.4992 -36.3979 18.5366 7.9300 10.2779 -3.3992 -42.5948 -72.4510 -0.0001 -31.8294 -0.0000 -1.5638 1.4171 18.5710 -0.0000 -0.0000 0.0000 13.2776 -0.7591 0.3703 -7.1714 40.0605 60.7782 -0.0001 30.2709 0.0000 -19.4481 -11.1336 -20.2297 -0.0000 -0.0000 0.0000
